<?xml version="1.0" encoding="UTF-8"?>
<svg id="Layer_1" xmlns="http://www.w3.org/2000/svg" version="1.1" viewBox="0 0 240 240">
  <!-- Generator: Adobe Illustrator 30.8.2, SVG Export Plug-In . SVG Version: 2.1.4 Build 7)  -->
  <defs>
    <style>
      .st0, .st1 {
        fill: #33373d;
      }

      .st2, .st3 {
        fill: #f2f0e8;
      }

      .st2, .st4, .st1, .st5 {
        display: none;
      }

      .st4 {
        fill: none;
        stroke: #f2f0e8;
        stroke-width: 6px;
      }
    </style>
  </defs>
  <g>
    <circle class="st0" cx="120" cy="120" r="72"/>
    <path class="st3" d="M149,154.6h-58c-6.6,0-12-5.4-12-12v-45.3c0-6.6,5.4-12,12-12h58c6.6,0,12,5.4,12,12v45.3c0,6.6-5.4,12-12,12ZM91,91.4c-3.3,0-6,2.7-6,6v45.3c0,3.3,2.7,6,6,6h58c3.3,0,6-2.7,6-6v-45.3c0-3.3-2.7-6-6-6h-58Z"/>
    <path class="st3" d="M111.5,105.1l22.1,12.9c1.5.9,1.5,3.1,0,4l-22.1,12.9c-1.5.9-3.5-.2-3.5-2v-25.9c0-1.8,1.9-2.9,3.5-2Z"/>
    <g>
      <rect class="st3" x="91.6" y="98" width="8.8" height="6" rx=".8" ry=".8"/>
      <rect class="st3" x="139.6" y="98" width="8.8" height="6" rx=".8" ry=".8"/>
      <rect class="st3" x="91.6" y="117" width="8.8" height="6" rx=".8" ry=".8"/>
      <rect class="st3" x="139.6" y="117" width="8.8" height="6" rx=".8" ry=".8"/>
      <rect class="st3" x="91.6" y="136" width="8.8" height="6" rx=".8" ry=".8"/>
      <rect class="st3" x="139.6" y="136" width="8.8" height="6" rx=".8" ry=".8"/>
    </g>
  </g>
  <circle class="st1" cx="-136.6" cy="-105.2" r="72"/>
  <rect class="st4" x="-174.6" y="-136.8" width="76" height="63.3" rx="-11.3" ry="-11.3"/>
  <path class="st2" d="M-145.1-120.1l22.1,12.9c1.5.9,1.5,3.1,0,4l-22.1,12.9c-1.5.9-3.5-.2-3.5-2v-25.9c0-1.8,1.9-2.9,3.5-2Z"/>
  <g class="st5">
    <rect class="st3" x="-163.6" y="-127.2" width="6" height="6" rx="-75.8" ry="-75.8"/>
    <rect class="st3" x="-163.6" y="-108.2" width="6" height="6" rx="-75.8" ry="-75.8"/>
    <rect class="st3" x="-163.6" y="-89.2" width="6" height="6" rx="-75.8" ry="-75.8"/>
    <rect class="st3" x="-115.6" y="-127.2" width="6" height="6" rx="-57.6" ry="-57.6"/>
    <rect class="st3" x="-115.6" y="-108.2" width="6" height="6" rx="-51.8" ry="-51.8"/>
    <rect class="st3" x="-115.6" y="-89.2" width="6" height="6" rx="-51.8" ry="-51.8"/>
  </g>
</svg>