<svg xmlns="http://www.w3.org/2000/svg" width="1200" height="560" viewBox="0 0 1200 560">
  <rect width="1200" height="560" rx="24" fill="#0b0d0c"/>
  <text x="48" y="54" fill="#f2f0e8" font-family="Arial,sans-serif" font-size="28" font-weight="700">Trailer icon options</text>
  <text x="48" y="84" fill="#a6aaa0" font-family="Arial,sans-serif" font-size="15">Ten film-strip + play treatments for the dark circular trailer button</text>
  <g font-family="Arial,sans-serif" fill="#f2f0e8" font-size="15" font-weight="700">
    <g transform="translate(48 120)"><circle cx="72" cy="72" r="48" fill="#33373d"/><rect x="52" y="52" width="40" height="40" rx="5" fill="none" stroke="#f2f0e8" stroke-width="4"/><path d="m67 63 15 9-15 9Z" fill="#f2f0e8"/><text x="0" y="150">1 · Clean frame</text></g>
    <g transform="translate(276 120)"><circle cx="72" cy="72" r="48" fill="#33373d"/><rect x="52" y="52" width="40" height="40" rx="5" fill="none" stroke="#f2f0e8" stroke-width="4"/><path d="M60 58v7M60 79v7M84 58v7M84 79v7" stroke="#f2f0e8" stroke-width="3" stroke-linecap="round"/><path d="m67 63 15 9-15 9Z" fill="#f2f0e8"/><text x="0" y="150">2 · Sprocket frame</text></g>
    <g transform="translate(504 120)"><circle cx="72" cy="72" r="48" fill="#33373d"/><rect x="50" y="55" width="44" height="34" rx="7" fill="none" stroke="#f2f0e8" stroke-width="4"/><path d="M59 55v34M85 55v34" stroke="#f2f0e8" stroke-width="3"/><path d="m68 63 14 9-14 9Z" fill="#f2f0e8"/><text x="0" y="150">3 · Side rails</text></g>
    <g transform="translate(732 120)"><circle cx="72" cy="72" r="48" fill="#33373d"/><rect x="50" y="50" width="44" height="44" rx="6" fill="#33373d" stroke="#f2f0e8" stroke-width="4"/><path d="m67 63 15 9-15 9Z" fill="#f2f0e8"/><text x="0" y="150">4 · Filled panel</text></g>
    <g transform="translate(960 120)"><circle cx="72" cy="72" r="48" fill="#33373d"/><rect x="52" y="52" width="40" height="40" rx="5" fill="none" stroke="#f2f0e8" stroke-width="4"/><circle cx="59" cy="59" r="2" fill="#f2f0e8"/><circle cx="85" cy="59" r="2" fill="#f2f0e8"/><circle cx="59" cy="85" r="2" fill="#f2f0e8"/><circle cx="85" cy="85" r="2" fill="#f2f0e8"/><path d="m67 63 15 9-15 9Z" fill="#f2f0e8"/><text x="0" y="150">5 · Corner dots</text></g>
    <g transform="translate(48 340)"><circle cx="72" cy="72" r="48" fill="#33373d"/><rect x="52" y="52" width="40" height="40" rx="5" fill="none" stroke="#f2f0e8" stroke-width="4"/><path d="M60 58v28M84 58v28" stroke="#f2f0e8" stroke-width="3" stroke-dasharray="2 5" stroke-linecap="round"/><path d="m67 63 15 9-15 9Z" fill="#f2f0e8"/><text x="0" y="150">6 · Dotted rails</text></g>
    <g transform="translate(276 340)"><circle cx="72" cy="72" r="48" fill="#33373d"/><rect x="52" y="52" width="40" height="40" rx="5" fill="none" stroke="#f2f0e8" stroke-width="4"/><path d="m67 63 15 9-15 9Z" fill="none" stroke="#f2f0e8" stroke-width="4" stroke-linejoin="round"/><path d="M60 58v7M60 79v7M84 58v7M84 79v7" stroke="#f2f0e8" stroke-width="3" stroke-linecap="round"/><text x="0" y="150">7 · Outline play</text></g>
    <g transform="translate(504 340)"><circle cx="72" cy="72" r="48" fill="#33373d"/><rect x="52" y="52" width="40" height="40" rx="5" fill="none" stroke="#f2f0e8" stroke-width="4"/><path d="M60 58v28M84 58v28" stroke="#f2f0e8" stroke-width="2"/><path d="m67 63 15 9-15 9Z" fill="#f2f0e8"/><text x="0" y="150">8 · Double rail</text></g>
    <g transform="translate(732 340)"><circle cx="72" cy="72" r="48" fill="#33373d"/><rect x="52" y="52" width="40" height="40" rx="5" fill="none" stroke="#f2f0e8" stroke-width="4"/><path d="M60 58h7M77 58h7M60 86h7M77 86h7" stroke="#f2f0e8" stroke-width="3" stroke-linecap="round"/><circle cx="72" cy="72" r="2.5" fill="#f2f0e8"/><path d="m70 66 9 6-9 6Z" fill="#f2f0e8"/><text x="0" y="150">9 · Focused center</text></g>
    <g transform="translate(960 340)"><circle cx="72" cy="72" r="48" fill="#33373d"/><rect x="52" y="52" width="40" height="40" rx="9" fill="none" stroke="#f2f0e8" stroke-width="4"/><path d="M60 58v7M60 79v7M84 58v7M84 79v7" stroke="#f2f0e8" stroke-width="3" stroke-linecap="round"/><path d="m67 63 15 9-15 9Z" fill="#f2f0e8"/><text x="0" y="150">10 · Soft frame</text></g>
  </g>
</svg>
