<?xml version="1.0" encoding="UTF-8"?>
<svg id="Layer_1" xmlns="http://www.w3.org/2000/svg" version="1.1" viewBox="0 0 240 240">
  <defs>
    <style>
      .st0 { fill: #33373d; }
      .st1 { fill: #f2f0e8; }
      .st2 { fill: none; stroke: #f2f0e8; stroke-width: 7px; }
      .st3 { fill: #0b0d0c; }
    </style>
  </defs>
  <rect class="st3" width="240" height="240" rx="32" ry="32"/>
  <circle class="st0" cx="120" cy="120" r="72"/>
  <rect class="st2" x="82" y="82" width="76" height="76" rx="9" ry="9"/>
  <path class="st1" d="M111.5,105.1l22.1,12.9c1.5.9,1.5,3.1,0,4l-22.1,12.9c-1.5.9-3.5-.2-3.5-2v-25.9c0-1.8,1.9-2.9,3.5-2Z"/>
  <g>
    <rect class="st1" x="93" y="98" width="6" height="6" rx=".8" ry=".8"/>
    <rect class="st1" x="93" y="117" width="6" height="6" rx=".8" ry=".8"/>
    <rect class="st1" x="93" y="136" width="6" height="6" rx=".8" ry=".8"/>
    <rect class="st1" x="141" y="98" width="6" height="6" rx=".8" ry=".8"/>
    <rect class="st1" x="141" y="117" width="6" height="6" rx=".8" ry=".8"/>
    <rect class="st1" x="141" y="136" width="6" height="6" rx=".8" ry=".8"/>
  </g>
</svg>
